
<svg 
    id="Layer_1" 
    data-name="Layer 1" 
    xmlns="http://www.w3.org/2000/svg" 
    viewBox="0 0 906 532">
    
    <defs> <style>.cls-1{fill:#dd7d2f;}.cls-2{fill:#fff;}</style> </defs>
    
    <rect width="906" height="532"/>
    
    
    <path 
        class="cls-1" 
        d="M586,187l-12.9-11.16h0L502.8,115h0L465.27,82.52a20.9,20.9,0,0,0-27,0L317.54,187c-7.94,6.87-6,14.34-5.18,16.47s4.2,9.07,14.69,9.07H343.6c0,30.5.25,61.49.33,92.18,0,13.16,7.64,23.86,19.57,28.08,12.42,4.4,25.37,1.24,33.63-8.92,4.12-5.07,7.45-10.82,10.82-16.46,7-11.78,13-24.29,21-35.4,11.67-16.27,34.06-16,46.34-.23,3.77,4.85,6.68,10.4,9.82,15.72,6.59,11.16,12.57,22.72,19.73,33.49,8.23,12.37,21.68,16.48,35.15,12,13-4.3,20.33-15.05,20.35-29.83q0-23,0-45.93,0-22.35,0-44.71H576.5c10.5,0,13.9-6.94,14.69-9.07S594,193.83,586,187ZM392.15,281.78c-8.75,2.94-19.06-4.22-23-16s-.07-23.7,8.69-26.64,19.06,4.22,23,16S400.91,278.83,392.15,281.78Zm32.22-39.2c-11.46,0-20.75-12.39-20.75-27.68s9.29-27.68,20.75-27.68,20.76,12.39,20.76,27.68S435.84,242.58,424.37,242.58Zm54.69,0c-11.47,0-20.76-12.39-20.76-27.68s9.29-27.68,20.76-27.68,20.76,12.39,20.76,27.68S490.52,242.58,479.06,242.58Zm55.23,23.2c-3.95,11.78-14.26,18.94-23,16s-12.65-14.88-8.69-26.65,14.26-18.93,23-16S538.25,254,534.29,265.78Z"/><path class="cls-2" d="M393.23,406.52c1.83-3.42,3.46-6.49,5.1-9.55,3.46-6.51,6.95-13,10.37-19.52,2.47-4.7,6.28-7.59,11.56-7.88,5.57-.3,11.16-.06,16.89-.06v51.13H424V382.1c-2.28,0-3.31,1.28-4.15,2.86-5.41,10.14-11.1,20.15-16.12,30.48-2.09,4.29-4.52,6.15-9.22,5.4a33.12,33.12,0,0,0-7,0,2.62,2.62,0,0,1-2.77-1.7c-6-11.39-12.13-22.75-18.19-34.13-.84-1.58-1.85-2.85-4.06-2.86v38.49H349.15c0-.54-.12-1.14-.12-1.74,0-15.82,0-31.65,0-47.47,0-1.52.34-2.12,2-2.08,4.32.11,8.64,0,13,.05,6.35.05,11,2.82,14,8.54,4.66,9,9.49,17.82,14.25,26.73C392.43,405.14,392.72,405.62,393.23,406.52Z"/><path class="cls-2" d="M342.06,381.19h-41a34.45,34.45,0,0,0-3.8.23c-4.66.57-6.81,3.56-6,8.5h48.32c2.43,0,2.43,0,2.43,2.51v7.75H291.22v8.65H342v11.77H277.78V418.5q0-14.58,0-29.17c0-12.29,6.82-19.63,19.16-19.88,14.54-.29,29.1-.09,43.65-.05.49,0,1.4.6,1.41.94C342.1,373.88,342.06,377.42,342.06,381.19Z"/><path class="cls-2" d="M220.09,389.93h50.55v10.16H219.85c0,2.8,0,5.38,0,8,0,.29.62.68,1,.8a5.49,5.49,0,0,0,1.52,0c15.37,0,30.75,0,46.13,0,1.83,0,2.41.49,2.32,2.33-.15,3.1,0,6.2,0,9.45H206.66c0-.67-.15-1.4-.15-2.12q0-14.58,0-29.17c0-12.31,6.82-19.63,19.15-19.88,14.55-.29,29.11-.07,43.66-.11,1.17,0,1.55.41,1.53,1.55-.06,2.86-.1,5.72,0,8.57.07,1.54-.6,1.77-1.91,1.76-6.67-.05-13.35,0-20,0-6.42,0-12.83,0-19.25,0a32.18,32.18,0,0,0-3.8.25C221.38,382,219.22,385.05,220.09,389.93Z"/><path class="cls-2" d="M509.52,381.19H507q-19.26,0-38.51,0a32.36,32.36,0,0,0-4.18.27c-4.2.54-6.32,3.53-5.6,8H509.4c0,.75.11,1.36.11,2,0,3.11,0,6.23,0,9.34,0,12.26-6.68,19.58-18.95,19.87-14.86.34-29.74.09-44.61.09a2.84,2.84,0,0,1-.55-.14V408.88h40.92a33.31,33.31,0,0,0,3.61-.17c4.57-.47,6.7-3.23,6.07-8H445.78c-.26-.3-.42-.39-.42-.48.06-5.33-.41-10.73.31-16,1.1-8.12,7.22-13.47,15.47-14.51a43.07,43.07,0,0,1,5.32-.35c13.6,0,27.2,0,40.81-.06,1.87,0,2.37.56,2.29,2.36C509.41,374.76,509.52,377.86,509.52,381.19Z"/><path class="cls-2" d="M662.58,420.77V369.46c.71,0,1.32-.1,1.94-.1h43.84a24.55,24.55,0,0,1,11.1,2.27c5.56,2.75,8.93,7.29,9.34,13.42a139.71,139.71,0,0,1,.07,19.41c-.64,8.76-6.65,14.65-15.33,15.89a41.8,41.8,0,0,1-5.7.41q-21.54,0-43.07,0Zm13.36-11.89h26.79c2.22,0,4.45,0,6.65-.16,4.35-.38,6.37-2.57,6.44-6.93s0-8.89,0-13.33-2-6.52-6.33-7a27.87,27.87,0,0,0-3-.21H677.89c-.61,0-1.23.06-1.95.1Z"/><path class="cls-1" d="M776.92,420.77v-2.42c0-9.53.19-19.07,0-28.59-.34-13.44,8.15-20.3,20.31-20.39,7.56-.06,15.12,0,22.68,0,6.42,0,12.84.06,19.25,0,1.66,0,2.17.41,2.16,2.11-.08,10,0,19.95-.06,29.93a26.08,26.08,0,0,1-.41,4.92c-1.54,7.8-7.42,13.14-15.48,14.11a50.48,50.48,0,0,1-5.89.37c-13.34,0-26.69,0-40,0Zm13.47-11.89H794c8.7,0,17.4.08,26.1-.06,5.78-.09,7.8-2.29,7.81-7.93,0-5.91,0-11.81,0-17.72,0-1.61-.5-2-2.06-2-8.76.07-17.52,0-26.29,0a28.87,28.87,0,0,0-3.22.23c-4.15.52-6.08,2.64-6.11,6.85,0,6.41,0,12.83,0,19.24C790.26,407.89,790.33,408.26,790.39,408.88Z"/><path class="cls-2" d="M580.64,420.77l6.71-16.21c3.2-7.75,6.56-15.43,9.57-23.25,3.35-8.73,9.76-12.67,18.82-12.66a88.91,88.91,0,0,1,12.33.69,14.45,14.45,0,0,1,11.51,8.44c2.58,5.52,4.88,11.17,7.23,16.79,3.36,8,6.66,16.07,10,24.11.24.57.44,1.17.78,2.1-2.71,0-5.21,0-7.7,0-2.21,0-4.91.59-6.48-.45s-1.85-3.74-2.68-5.73c-1.55-3.77-1.54-3.77-5.63-3.77-11.31,0-22.62,0-33.93,0a2.37,2.37,0,0,0-2.68,1.73c-.86,2.38-1.87,4.72-2.93,7a2.15,2.15,0,0,1-1.41,1.18C589.76,420.81,585.39,420.77,580.64,420.77Zm53.17-21.93c0-.31.1-.52,0-.67-1.92-4.69-3.82-9.4-5.83-14.06a4.2,4.2,0,0,0-3.88-2.66c-3.29-.07-6.59-.09-9.88,0a4.52,4.52,0,0,0-4.18,3.11q-2.79,6.68-5.53,13.36a3.6,3.6,0,0,0-.12.92Z"/><path class="cls-2" d="M185.38,420.61V401.08H146.21v19.58H133c0-.66-.12-1.33-.12-2,0-15.7,0-31.4,0-47.09,0-1.72.42-2.34,2.22-2.27,3.6.14,7.21,0,11,0,0,.86.13,1.54.13,2.21,0,5.28,0,10.55,0,15.82,0,1.11.11,1.77,1.51,1.76,12.2,0,24.4,0,36.61,0a9,9,0,0,0,1.13-.16v-2.1c0-5.22,0-10.43,0-15.64,0-1.35.28-1.93,1.78-1.89,3.36.11,6.73.06,10.1,0,1,0,1.51.24,1.51,1.37q0,24.69,0,49.38a2.07,2.07,0,0,1-.17.52Z"/><path class="cls-2" d="M530.58,420.68h-13.3v-2.32q0-14.49,0-29c0-12.38,6.88-19.73,19.28-19.95,14.48-.26,29-.06,43.45-.11,1.31,0,1.6.5,1.59,1.69,0,6,0,11.94,0,17.91-.13,9.55-5.51,16.55-15,17.72-8.39,1-16.95.67-25.74.93,0-4,0-7.63.08-11.21,0-.33,1.08-.88,1.66-.89,5.14-.07,10.29,0,15.44-.05a42.56,42.56,0,0,0,4.37-.17c3.65-.39,5.76-2.65,5.88-6.29.07-2.47,0-5,0-7.66-.75,0-1.41-.11-2.08-.11q-13,0-26.11,0c-7.55,0-9.48,2-9.48,9.45v30Z"/><path class="cls-2" d="M126.7,420.7H62.53c-.06-.64-.16-1.24-.16-1.84q0-15.06,0-30.12c0-6.76,2.12-12.5,8.12-16.25a21,21,0,0,1,11.26-3.09c14.62-.07,29.23,0,43.85,0a8,8,0,0,1,.92.12v11.6c-.72,0-1.51.1-2.3.1-12.84,0-25.67,0-38.51,0a31.43,31.43,0,0,0-4.55.31c-3.23.46-5.22,2.47-5.32,5.74-.16,5.71-.1,11.43-.12,17.15,0,4.47,0,4.47,4.5,4.47,14.75,0,29.49,0,44.23,0,1.88,0,2.38.55,2.29,2.36C126.6,414.29,126.7,417.4,126.7,420.7Z"/><path class="cls-1" d="M768.89,420.66h-13c0-.68-.13-1.34-.13-2,0-15.7,0-31.39,0-47.09,0-1.71.41-2.32,2.21-2.25,3.6.15,7.21,0,10.95,0Z"/>
    
    <path 
        class="cls-1" 
        d="M735.5,409h13.08v11.61H735.5Z"
    />
    
</svg>